<svg width="32" height="32" viewBox="0 0 32 32" fill="none" xmlns="http://www.w3.org/2000/svg">
<path d="M25.9108 9.46094C27.3924 9.46094 28.5936 10.6669 28.5936 12.1544V26.6538C28.5936 28.1412 27.3924 29.3472 25.9108 29.3472H5.85073C4.36915 29.3472 3.16797 28.1412 3.16797 26.6538V12.1544C3.16797 10.6669 4.36915 9.46094 5.85073 9.46094H25.9108Z" fill="#DEE4FF"/>
<path d="M2.69367 7.05078H29.3066C30.1132 7.05078 30.764 7.70763 30.764 8.51393V12.5245C30.764 13.3343 30.1097 13.9877 29.3066 13.9877H2.69367C1.88711 13.9877 1.23633 13.3308 1.23633 12.5245V8.51393C1.23633 7.70416 1.89057 7.05078 2.69367 7.05078Z" fill="#BBC7F5"/>
<path d="M25.16 5.20864L23.7684 2.35185C23.2768 1.34051 22.1449 1.0729 21.2587 1.76103L16.0351 5.79945C15.9798 5.84116 15.9313 5.88286 15.8828 5.92457C15.8378 5.88286 15.7859 5.84116 15.7305 5.79945L10.5035 1.76103C9.61383 1.0729 8.48534 1.34051 7.99379 2.35185L6.60222 5.20864C6.11067 6.21998 6.62645 7.04713 7.74801 7.04713H24.0142C25.1357 7.04713 25.6515 6.21998 25.16 5.20864Z" fill="#476EFF"/>
<path d="M18.7679 7.07812H13.6689V29.3798H18.7679V7.07812Z" fill="#476EFF"/>
</svg>
