<svg width="32" height="32" viewBox="0 0 32 32" fill="none" xmlns="http://www.w3.org/2000/svg">
<path d="M27.6777 26.1188L27.6777 5.88116C27.6777 3.18537 25.4902 1 22.7917 1L9.33796 0.999999C6.63948 0.999999 4.45193 3.18537 4.45193 5.88115L4.45193 26.1188C4.45193 28.8146 6.63948 31 9.33796 31L22.7917 31C25.4902 31 27.6777 28.8146 27.6777 26.1188Z" fill="#476EFF"/>
<path d="M23.1133 9.08832L23.1133 6.74086C23.1133 5.98436 22.4994 5.37109 21.7422 5.37109L19.3923 5.37109C18.6351 5.37109 18.0212 5.98436 18.0212 6.74086L18.0212 9.08832C18.0212 9.84482 18.6351 10.4581 19.3923 10.4581L21.7422 10.4581C22.4994 10.4581 23.1133 9.84482 23.1133 9.08832Z" fill="white"/>
<path d="M7.8707 24.4218C7.8707 26.1811 9.29832 27.6073 11.0594 27.6073C12.8204 27.6073 14.248 26.1811 14.248 24.4218C14.248 22.6625 12.8204 21.2363 11.0594 21.2363C9.29832 21.2363 7.8707 22.6625 7.8707 24.4218Z" fill="#EF6250"/>
<path d="M7.8707 20.246C7.8707 22.0053 9.29832 23.4315 11.0594 23.4315C12.8204 23.4315 14.248 22.0053 14.248 20.246C14.248 18.4867 12.8204 17.0605 11.0594 17.0605C9.29832 17.0605 7.8707 18.4867 7.8707 20.246Z" fill="#FFD255"/>
</svg>
