<svg width="24" height="24" viewBox="0 0 24 24" fill="none" xmlns="http://www.w3.org/2000/svg">
<path fill-rule="evenodd" clip-rule="evenodd" d="M20.25 15C20.25 14.3096 19.6904 13.75 19 13.75C18.3096 13.75 17.75 14.3096 17.75 15C17.75 15.6904 18.3096 16.25 19 16.25C19.6904 16.25 20.25 15.6904 20.25 15ZM19.75 12.3535C20.9043 12.68 21.75 13.7412 21.75 15C21.75 16.2588 20.9043 17.32 19.75 17.6465L19.75 19.5C19.75 19.9142 19.4142 20.25 19 20.25C18.5858 20.25 18.25 19.9142 18.25 19.5L18.25 17.6465C17.0957 17.32 16.25 16.2588 16.25 15C16.25 13.7412 17.0957 12.68 18.25 12.3535L18.25 5C18.25 4.58579 18.5858 4.25 19 4.25C19.4142 4.25 19.75 4.58579 19.75 5L19.75 12.3535ZM13.75 9.25C13.75 8.55964 13.1904 8 12.5 8C11.8096 8 11.25 8.55964 11.25 9.25C11.25 9.94036 11.8096 10.5 12.5 10.5C13.1904 10.5 13.75 9.94036 13.75 9.25ZM13.25 6.60352C14.4043 6.92998 15.25 7.99122 15.25 9.25C15.25 10.5088 14.4043 11.57 13.25 11.8965L13.25 19.5C13.25 19.9142 12.9142 20.25 12.5 20.25C12.0858 20.25 11.75 19.9142 11.75 19.5L11.75 11.8965C10.5957 11.57 9.75 10.5088 9.75 9.25C9.75 7.99122 10.5957 6.92998 11.75 6.60352L11.75 5C11.75 4.58579 12.0858 4.25 12.5 4.25C12.9142 4.25 13.25 4.58579 13.25 5L13.25 6.60352ZM6.75 14C6.75 13.3096 6.19035 12.75 5.5 12.75C4.80964 12.75 4.25 13.3096 4.25 14C4.25 14.6904 4.80964 15.25 5.5 15.25C6.19035 15.25 6.75 14.6904 6.75 14ZM6.25 11.3535C7.40425 11.68 8.25 12.7412 8.25 14C8.25 15.2588 7.40425 16.32 6.25 16.6465L6.25 19.5C6.25 19.9142 5.91421 20.25 5.5 20.25C5.08578 20.25 4.75 19.9142 4.75 19.5L4.75 16.6465C3.59575 16.32 2.75 15.2588 2.75 14C2.75 12.7412 3.59575 11.68 4.75 11.3535L4.75 5C4.75 4.58579 5.08578 4.25 5.5 4.25C5.91421 4.25 6.25 4.58579 6.25 5L6.25 11.3535Z" fill="#666666"/>
</svg>
